<svg width="24" height="32" viewBox="0 0 24 32" fill="none" xmlns="http://www.w3.org/2000/svg">
<path fill-rule="evenodd" clip-rule="evenodd" d="M20.5261 13.2739C20.9323 13.6856 21.3448 14.1036 21.702 14.5778L21.6146 14.5956C22.191 15.2711 22.6627 16 23.012 16.8178L23.2391 17.28C24.8985 21.3333 23.7631 26.0622 20.619 29.0133C17.8068 31.6444 13.8766 32.3378 10.2085 31.8578C6.76745 31.4133 3.57094 29.2089 1.75434 26.1333C1.19539 25.1911 0.741243 24.1244 0.496701 23.0578C0.199757 22.1689 0.0949538 21.28 0.0250847 20.3911C-0.219457 16.5333 1.33513 12.4444 4.19976 10.0267C2.88972 12.9422 3.20413 16.5867 5.12553 19.1289C5.21286 19.2533 5.28273 19.3422 5.38754 19.4311C5.70195 19.7156 6.12116 19.8222 6.50544 19.6444C6.85478 19.5022 7.11679 19.1467 7.11679 18.7556C7.11679 18.5244 7.04693 18.3467 6.97706 18.1689C4.88098 12.5689 6.62771 6.04444 11.0644 2.34667C12.2871 1.33333 13.7544 0.408889 15.3439 0C13.7544 3.28889 14.2784 7.57333 16.8286 10.1689C17.4251 10.776 18.0832 11.2786 18.7417 11.7816C19.2979 12.2064 19.8545 12.6315 20.3744 13.12C20.4248 13.1713 20.4754 13.2225 20.5261 13.2739ZM14.4006 26.8444C15.012 26.6667 15.798 26.2044 16.2871 25.7778H16.2696C17.3177 24.8 17.929 23.2 17.8766 21.7422C17.8766 21.4756 17.8417 21.2267 17.7718 20.9778C17.4877 19.4047 16.5085 18.5239 15.4933 17.6109C14.9482 17.1206 14.3928 16.6211 13.929 16C13.5273 15.4667 13.1779 14.7911 12.881 14.1156C12.3919 15.3422 12.357 16.4622 12.5666 17.7778C12.6317 18.1706 12.7228 18.5474 12.8125 18.9185C13.0354 19.8406 13.2499 20.7282 13.0382 21.7422C12.6889 23.3244 11.4661 24.8889 9.38754 25.3867C10.5578 26.56 12.4792 27.5556 14.4006 26.8444Z" fill="#FB6D3A"/>
</svg>
