<svg width="24" height="24" viewBox="0 0 24 24" fill="none" xmlns="http://www.w3.org/2000/svg">
<path d="M14.0401 4.08307H13.3369V13.8168L7.56549 21.6403L8.1308 22.0578C9.85121 23.3284 11.8946 24 14.0401 24C19.5312 24 23.9985 19.5326 23.9985 14.0415C23.9985 8.55044 19.5311 4.08307 14.0401 4.08307Z" fill="#FB6D3A"/>
<path d="M2.87171 5.56366C2.28259 6.24672 1.71559 6.93241 1.27191 7.72319C0.65232 8.82757 0.246711 10.0492 0.0825076 11.3048C-0.270227 14.0024 0.518211 16.7773 2.23674 18.8855C2.92271 19.727 3.74602 20.3901 4.61359 21.0305L10.9095 12.4961L2.87171 5.56366Z" fill="#FB6D3A"/>
<path d="M11.2208 0C9.77363 0 8.39673 0.142031 7.06248 0.753609C5.72781 1.36537 4.72093 2.31605 3.7756 3.41236L11.2208 9.83362V0Z" fill="#FB6D3A"/>
</svg>
