<svg width="24" height="24" viewBox="0 0 24 24" fill="none" xmlns="http://www.w3.org/2000/svg">
<path d="M24 7.48052C24 5.74494 24 4.53075 24 4.41558C24 3.1266 23.0537 2.07792 21.8906 2.07792H21.6094V4.93507C21.6094 5.3654 21.2946 5.71429 20.9062 5.71429C20.5179 5.71429 20.2031 5.3654 20.2031 4.93507C20.2031 4.06031 20.2031 1.65029 20.2031 0.779221C20.2031 0.348883 19.8883 0 19.5 0C19.1117 0 18.7969 0.348883 18.7969 0.779221V2.07792H14.1094V4.93507C14.1094 5.3654 13.7946 5.71429 13.4062 5.71429C13.0179 5.71429 12.7031 5.3654 12.7031 4.93507C12.7031 4.06031 12.7031 1.65029 12.7031 0.779221C12.7031 0.348883 12.3883 0 12 0C11.6117 0 11.2969 0.348883 11.2969 0.779221V2.07792H6.60938V4.93507C6.60938 5.3654 6.29456 5.71429 5.90625 5.71429C5.51794 5.71429 5.20312 5.3654 5.20312 4.93507C5.20312 4.06031 5.20312 1.65029 5.20312 0.779221C5.20312 0.348883 4.88831 0 4.5 0C4.11169 0 3.79688 0.348883 3.79688 0.779221V2.07792H2.10938C0.946266 2.07792 0 3.1266 0 4.41558V7.48052H24Z" fill="#FACD5D"/>
<path d="M-6.67572e-06 9.03894V21.6623C-6.67572e-06 22.9513 0.946259 24 2.10937 24H21.8906C23.0537 24 24 22.9513 24 21.6623C24 21.3286 24 14.0357 24 9.03894C23.5624 9.03894 0.242056 9.03894 -6.67572e-06 9.03894ZM6.74999 19.8441H5.24999C4.86168 19.8441 4.54687 19.4953 4.54687 19.0649C4.54687 18.6346 4.86168 18.2857 5.24999 18.2857H6.74999C7.13831 18.2857 7.45312 18.6346 7.45312 19.0649C7.45312 19.4953 7.13831 19.8441 6.74999 19.8441ZM6.74999 16.5195H5.24999C4.86168 16.5195 4.54687 16.1706 4.54687 15.7402C4.54687 15.3099 4.86168 14.961 5.24999 14.961H6.74999C7.13831 14.961 7.45312 15.3099 7.45312 15.7402C7.45312 16.1706 7.13831 16.5195 6.74999 16.5195ZM6.74999 13.1948H5.24999C4.86168 13.1948 4.54687 12.8459 4.54687 12.4156C4.54687 11.9852 4.86168 11.6363 5.24999 11.6363H6.74999C7.13831 11.6363 7.45312 11.9852 7.45312 12.4156C7.45312 12.8459 7.13831 13.1948 6.74999 13.1948ZM12.75 19.8441H11.25C10.8617 19.8441 10.5469 19.4953 10.5469 19.0649C10.5469 18.6346 10.8617 18.2857 11.25 18.2857H12.75C13.1383 18.2857 13.4531 18.6346 13.4531 19.0649C13.4531 19.4953 13.1383 19.8441 12.75 19.8441ZM12.75 16.5195H11.25C10.8617 16.5195 10.5469 16.1706 10.5469 15.7402C10.5469 15.3099 10.8617 14.961 11.25 14.961H12.75C13.1383 14.961 13.4531 15.3099 13.4531 15.7402C13.4531 16.1706 13.1383 16.5195 12.75 16.5195ZM12.75 13.1948H11.25C10.8617 13.1948 10.5469 12.8459 10.5469 12.4156C10.5469 11.9852 10.8617 11.6363 11.25 11.6363H12.75C13.1383 11.6363 13.4531 11.9852 13.4531 12.4156C13.4531 12.8459 13.1383 13.1948 12.75 13.1948ZM18.75 19.8441H17.25C16.8617 19.8441 16.5469 19.4953 16.5469 19.0649C16.5469 18.6346 16.8617 18.2857 17.25 18.2857H18.75C19.1383 18.2857 19.4531 18.6346 19.4531 19.0649C19.4531 19.4953 19.1383 19.8441 18.75 19.8441ZM18.75 16.5195H17.25C16.8617 16.5195 16.5469 16.1706 16.5469 15.7402C16.5469 15.3099 16.8617 14.961 17.25 14.961H18.75C19.1383 14.961 19.4531 15.3099 19.4531 15.7402C19.4531 16.1706 19.1383 16.5195 18.75 16.5195ZM18.75 13.1948H17.25C16.8617 13.1948 16.5469 12.8459 16.5469 12.4156C16.5469 11.9852 16.8617 11.6363 17.25 11.6363H18.75C19.1383 11.6363 19.4531 11.9852 19.4531 12.4156C19.4531 12.8459 19.1383 13.1948 18.75 13.1948Z" fill="#FACD5D"/>
</svg>
